<?xml version="1.0" standalone="no"?>
<!DOCTYPE svg PUBLIC "-//W3C//DTD SVG 1.1//EN" "http://www.w3.org/Graphics/SVG/1.1/DTD/svg11.dtd" >
<svg xmlns="http://www.w3.org/2000/svg">
<metadata></metadata>
<defs>
<font id="snaredrum_three_nbpregular" horiz-adv-x="640" >
<font-face units-per-em="2048" ascent="1638" descent="-410" />
<missing-glyph horiz-adv-x="256" />
<glyph horiz-adv-x="2048" />
<glyph horiz-adv-x="2048" />
<glyph unicode="&#xd;" horiz-adv-x="2048" />
<glyph unicode=" "  horiz-adv-x="256" />
<glyph unicode="&#x09;" horiz-adv-x="256" />
<glyph unicode="&#xa0;" horiz-adv-x="256" />
<glyph unicode="!" horiz-adv-x="256" d="M0 0v128h128v-128h-128zM0 256v384h128v-384h-128z" />
<glyph unicode="&#x22;" horiz-adv-x="512" d="M0 384v256h128v-256h-128zM256 384v256h128v-256h-128z" />
<glyph unicode="#" horiz-adv-x="768" d="M0 128v128h128v128h-128v128h128v128h128v-128h128v128h128v-128h128v-128h-128v-128h128v-128h-128v-128h-128v128h-128v-128h-128v128h-128zM256 256h128v128h-128v-128z" />
<glyph unicode="$" horiz-adv-x="768" d="M0 0v128h256v128h-128v128h128v128h-128v128h512v-128h-256v-128h128v-128h-128v-128h128v-128h-512zM0 384v128h128v-128h-128zM512 128v128h128v-128h-128z" />
<glyph unicode="%" horiz-adv-x="768" d="M0 0v128h128v-128h-128zM0 384v256h256v-256h-256zM128 128v128h128v-128h-128zM256 256v128h128v-128h-128zM384 0v256h256v-256h-256zM384 384v128h128v-128h-128zM512 512v128h128v-128h-128z" />
<glyph unicode="&#x26;" horiz-adv-x="768" d="M0 128v128h128v-128h-128zM0 384v128h128v-128h-128zM128 0v128h256v128h-256v128h512v-128h-128v-128h128v-128h-512zM128 512v128h384v-128h-384z" />
<glyph unicode="'" horiz-adv-x="384" d="M0 512v128h256v-256h-128v128h-128z" />
<glyph unicode="(" horiz-adv-x="384" d="M0 128v384h128v-384h-128zM128 0v128h128v-128h-128zM128 512v128h128v-128h-128z" />
<glyph unicode=")" horiz-adv-x="384" d="M0 0v128h128v-128h-128zM0 512v128h128v-128h-128zM128 128v384h128v-384h-128z" />
<glyph unicode="*" horiz-adv-x="768" d="M0 384v128h256v-128h-256zM128 128v128h128v-128h-128zM256 256v128h128v-128h-128zM256 512v128h128v-128h-128zM384 128v128h128v-128h-128zM384 384v128h256v-128h-256z" />
<glyph unicode="+" horiz-adv-x="768" d="M0 256v128h256v256h128v-256h256v-128h-256v-256h-128v256h-256z" />
<glyph unicode="," horiz-adv-x="384" d="M0 128v128h256v-256h-128v128h-128z" />
<glyph unicode="-" d="M0 256v128h512v-128h-512z" />
<glyph unicode="." horiz-adv-x="256" d="M0 0v128h128v-128h-128z" />
<glyph unicode="/" horiz-adv-x="768" d="M0 0v128h128v-128h-128zM128 128v128h128v-128h-128zM256 256v128h128v-128h-128zM384 384v128h128v-128h-128zM512 512v128h128v-128h-128z" />
<glyph unicode="0" d="M0 128v384h128v-384h-128zM128 0v128h256v-128h-256zM128 512v128h256v-128h-256zM384 128v384h128v-384h-128z" />
<glyph unicode="1" horiz-adv-x="384" d="M0 512v128h256v-640h-128v512h-128z" />
<glyph unicode="2" d="M0 0v256h128v-128h384v-128h-512zM0 512v128h384v-128h-384zM128 256v128h256v-128h-256zM384 384v128h128v-128h-128z" />
<glyph unicode="3" d="M0 0v128h384v-128h-384zM0 512v128h384v-128h-384zM128 256v128h256v-128h-256zM384 128v128h128v-128h-128zM384 384v128h128v-128h-128z" />
<glyph unicode="4" d="M0 256v384h128v-256h256v256h128v-640h-128v256h-384z" />
<glyph unicode="5" d="M0 0v128h384v-128h-384zM0 256v384h512v-128h-384v-128h256v-128h-384zM384 128v128h128v-128h-128z" />
<glyph unicode="6" d="M0 128v384h128v-128h256v-128h-256v-128h-128zM128 0v128h256v-128h-256zM128 512v128h256v-128h-256zM384 128v128h128v-128h-128z" />
<glyph unicode="7" d="M0 512v128h512v-640h-128v512h-384z" />
<glyph unicode="8" d="M0 128v128h128v-128h-128zM0 384v128h128v-128h-128zM128 0v128h256v-128h-256zM128 256v128h256v-128h-256zM128 512v128h256v-128h-256zM384 128v128h128v-128h-128zM384 384v128h128v-128h-128z" />
<glyph unicode="9" d="M0 384v128h128v-128h-128zM128 0v128h256v-128h-256zM128 256v128h256v128h128v-384h-128v128h-256zM128 512v128h256v-128h-256z" />
<glyph unicode=":" horiz-adv-x="384" d="M0 0v256h256v-256h-256zM0 384v256h256v-256h-256z" />
<glyph unicode=";" horiz-adv-x="384" d="M0 128v128h256v-256h-128v128h-128zM0 384v256h256v-256h-256z" />
<glyph unicode="&#x3c;" horiz-adv-x="512" d="M0 256v128h128v-128h-128zM128 128v128h128v-128h-128zM128 384v128h128v-128h-128zM256 0v128h128v-128h-128zM256 512v128h128v-128h-128z" />
<glyph unicode="=" d="M0 128v128h512v-128h-512zM0 384v128h512v-128h-512z" />
<glyph unicode="&#x3e;" horiz-adv-x="512" d="M0 0v128h128v-128h-128zM0 512v128h128v-128h-128zM128 128v128h128v-128h-128zM128 384v128h128v-128h-128zM256 256v128h128v-128h-128z" />
<glyph unicode="?" d="M0 512v128h384v-128h-384zM128 0v128h128v-128h-128zM128 256v128h256v-128h-256zM384 384v128h128v-128h-128z" />
<glyph unicode="@" horiz-adv-x="768" d="M0 0v256h128v-128h128v128h-128v128h256v-256h128v-128h-512zM0 512v128h512v-128h-512zM512 128v384h128v-384h-128z" />
<glyph unicode="A" d="M0 0v512h128v-128h256v128h128v-512h-128v256h-256v-256h-128zM128 512v128h256v-128h-256z" />
<glyph unicode="B" d="M0 0v640h384v-128h-256v-128h256v128h128v-384h-128v128h-256v-128h256v-128h-384z" />
<glyph unicode="C" d="M0 128v384h128v-384h-128zM128 0v128h384v-128h-384zM128 512v128h384v-128h-384z" />
<glyph unicode="D" d="M0 0v640h384v-128h-256v-384h256v-128h-384zM384 128v384h128v-384h-128z" />
<glyph unicode="E" d="M0 0v640h512v-128h-384v-128h256v-128h-256v-128h384v-128h-512z" />
<glyph unicode="F" d="M0 0v640h512v-128h-384v-128h256v-128h-256v-256h-128z" />
<glyph unicode="G" d="M0 128v384h128v-384h-128zM128 0v128h256v128h-128v128h256v-384h-384zM128 512v128h384v-128h-384z" />
<glyph unicode="H" d="M0 0v640h128v-256h256v256h128v-640h-128v256h-256v-256h-128z" />
<glyph unicode="I" horiz-adv-x="256" d="M0 0v640h128v-640h-128z" />
<glyph unicode="J" d="M0 0v128h384v-128h-384zM384 128v512h128v-512h-128z" />
<glyph unicode="K" d="M0 0v640h128v-256h128v-128h-128v-256h-128zM256 128v128h128v-128h-128zM256 384v128h128v-128h-128zM384 0v128h128v-128h-128zM384 512v128h128v-128h-128z" />
<glyph unicode="L" d="M0 0v640h128v-512h384v-128h-512z" />
<glyph unicode="M" horiz-adv-x="768" d="M0 0v640h128v-128h128v-128h-128v-384h-128zM256 256v128h128v-128h-128zM384 384v128h128v128h128v-640h-128v384h-128z" />
<glyph unicode="N" d="M0 0v640h128v-128h128v-128h-128v-384h-128zM256 256v128h128v256h128v-640h-128v256h-128z" />
<glyph unicode="O" d="M0 128v384h128v-384h-128zM128 0v128h256v-128h-256zM128 512v128h256v-128h-256zM384 128v384h128v-384h-128z" />
<glyph unicode="P" d="M0 0v640h384v-128h-256v-128h256v-128h-256v-256h-128zM384 384v128h128v-128h-128z" />
<glyph unicode="Q" d="M0 128v384h128v-384h-128zM128 0v128h128v128h128v256h128v-512h-384zM128 512v128h256v-128h-256z" />
<glyph unicode="R" d="M0 0v640h384v-128h-256v-128h256v-128h-256v-256h-128zM384 0v256h128v-256h-128zM384 384v128h128v-128h-128z" />
<glyph unicode="S" d="M0 0v128h384v-128h-384zM0 384v128h128v-128h-128zM128 256v128h256v-128h-256zM128 512v128h384v-128h-384zM384 128v128h128v-128h-128z" />
<glyph unicode="T" horiz-adv-x="512" d="M0 512v128h384v-128h-128v-512h-128v512h-128z" />
<glyph unicode="U" d="M0 128v512h128v-512h-128zM128 0v128h256v-128h-256zM384 128v512h128v-512h-128z" />
<glyph unicode="V" d="M0 0v640h128v-512h256v-128h-384zM384 128v512h128v-512h-128z" />
<glyph unicode="W" horiz-adv-x="768" d="M0 0v640h128v-512h128v-128h-256zM256 128v384h128v-384h-128zM384 0v128h128v512h128v-640h-256z" />
<glyph unicode="X" d="M0 0v256h128v-256h-128zM0 384v256h128v-256h-128zM128 256v128h256v-128h-256zM384 0v256h128v-256h-128zM384 384v256h128v-256h-128z" />
<glyph unicode="Y" d="M0 0v128h384v-128h-384zM0 384v256h128v-256h-128zM128 256v128h256v256h128v-512h-128v128h-256z" />
<glyph unicode="Z" d="M0 0v256h128v-128h384v-128h-512zM0 512v128h512v-256h-128v128h-384zM128 256v128h256v-128h-256z" />
<glyph unicode="[" horiz-adv-x="384" d="M0 0v640h256v-128h-128v-384h128v-128h-256z" />
<glyph unicode="\" horiz-adv-x="768" d="M0 512v128h128v-128h-128zM128 384v128h128v-128h-128zM256 256v128h128v-128h-128zM384 128v128h128v-128h-128zM512 0v128h128v-128h-128z" />
<glyph unicode="]" horiz-adv-x="384" d="M0 0v128h128v384h-128v128h256v-640h-256z" />
<glyph unicode="^" horiz-adv-x="768" d="M0 256v128h128v-128h-128zM128 384v128h128v-128h-128zM256 512v128h128v-128h-128zM384 384v128h128v-128h-128zM512 256v128h128v-128h-128z" />
<glyph unicode="_" d="M0 0v128h512v-128h-512z" />
<glyph unicode="`" horiz-adv-x="512" d="M0 512v128h128v-128h-128zM128 384v128h128v-128h-128zM256 256v128h128v-128h-128z" />
<glyph unicode="a" d="M0 128v128h128v-128h-128zM128 0v128h256v128h-256v128h256v128h128v-512h-384zM128 512v128h256v-128h-256z" />
<glyph unicode="b" d="M0 0v640h128v-128h256v-128h-256v-256h256v-128h-384zM384 128v256h128v-256h-128z" />
<glyph unicode="c" d="M0 128v256h128v-256h-128zM128 0v128h384v-128h-384zM128 384v128h384v-128h-384z" />
<glyph unicode="d" d="M0 128v256h128v-256h-128zM128 0v128h256v256h-256v128h256v128h128v-640h-384z" />
<glyph unicode="e" d="M0 128v384h128v-128h256v128h128v-256h-384v-128h-128zM128 0v128h384v-128h-384zM128 512v128h256v-128h-256z" />
<glyph unicode="f" d="M0 256v128h128v128h128v-128h256v-128h-256v-256h-128v256h-128zM256 512v128h256v-128h-256z" />
<glyph unicode="g" d="M0 0v128h384v-128h-384zM0 384v128h128v-128h-128zM128 256v128h256v128h-256v128h384v-512h-128v128h-256z" />
<glyph unicode="h" d="M0 0v640h128v-128h256v-128h-256v-384h-128zM384 0v384h128v-384h-128z" />
<glyph unicode="i" horiz-adv-x="256" d="M0 0v384h128v-384h-128zM0 512v128h128v-128h-128z" />
<glyph unicode="j" d="M0 0v128h384v-128h-384zM384 128v256h128v-256h-128zM384 512v128h128v-128h-128z" />
<glyph unicode="k" d="M0 0v640h128v-256h128v-128h-128v-256h-128zM256 128v128h128v-128h-128zM256 384v128h256v-128h-256zM384 0v128h128v-128h-128z" />
<glyph unicode="l" horiz-adv-x="384" d="M0 0v640h128v-512h128v-128h-256z" />
<glyph unicode="m" horiz-adv-x="768" d="M0 0v640h256v-128h-128v-512h-128zM256 128v384h128v-384h-128zM384 512v128h128v-128h-128zM512 0v512h128v-512h-128z" />
<glyph unicode="n" d="M0 0v640h384v-128h-256v-512h-128zM384 0v512h128v-512h-128z" />
<glyph unicode="o" d="M0 128v384h128v-384h-128zM128 0v128h256v-128h-256zM128 512v128h256v-128h-256zM384 128v384h128v-384h-128z" />
<glyph unicode="p" d="M0 0v640h384v-128h-256v-256h256v-128h-256v-128h-128zM384 256v256h128v-256h-128z" />
<glyph unicode="q" d="M0 256v256h128v-256h-128zM128 128v128h256v256h-256v128h384v-640h-128v128h-256z" />
<glyph unicode="r" d="M0 0v640h384v-128h-256v-512h-128zM384 384v128h128v-128h-128z" />
<glyph unicode="s" d="M0 0v128h384v-128h-384zM0 384v128h128v-128h-128zM128 256v128h256v-128h-256zM128 512v128h384v-128h-384zM384 128v128h128v-128h-128z" />
<glyph unicode="t" d="M0 384v128h128v128h128v-128h256v-128h-256v-256h256v-128h-384v384h-128z" />
<glyph unicode="u" d="M0 128v512h128v-512h-128zM128 0v128h256v-128h-256zM384 128v512h128v-512h-128z" />
<glyph unicode="v" d="M0 0v640h128v-512h256v-128h-384zM384 128v512h128v-512h-128z" />
<glyph unicode="w" horiz-adv-x="768" d="M0 0v640h128v-512h128v384h128v-384h128v512h128v-640h-640z" />
<glyph unicode="x" d="M0 0v256h128v-256h-128zM0 384v256h128v-256h-128zM128 256v128h256v-128h-256zM384 0v256h128v-256h-128zM384 384v256h128v-256h-128z" />
<glyph unicode="y" d="M0 0v128h384v-128h-384zM0 384v256h128v-256h-128zM128 256v128h256v256h128v-512h-128v128h-256z" />
<glyph unicode="z" d="M0 0v256h128v-128h384v-128h-512zM0 512v128h512v-256h-128v128h-384zM128 256v128h256v-128h-256z" />
<glyph unicode="{" horiz-adv-x="512" d="M0 256v128h128v-128h-128zM128 0v256h128v-128h128v-128h-256zM128 384v256h256v-128h-128v-128h-128z" />
<glyph unicode="|" horiz-adv-x="256" d="M0 0v640h128v-640h-128z" />
<glyph unicode="}" horiz-adv-x="512" d="M0 0v128h128v128h128v-256h-256zM0 512v128h256v-256h-128v128h-128zM256 256v128h128v-128h-128z" />
<glyph unicode="~" horiz-adv-x="768" d="M0 128v256h128v-256h-128zM128 384v128h128v-128h-128zM256 256v128h128v-128h-128zM384 128v128h128v-128h-128zM512 256v256h128v-256h-128z" />
<glyph unicode="&#xad;" d="M0 256v128h512v-128h-512z" />
<glyph unicode="&#x2000;" horiz-adv-x="682" />
<glyph unicode="&#x2001;" horiz-adv-x="1365" />
<glyph unicode="&#x2002;" horiz-adv-x="682" />
<glyph unicode="&#x2003;" horiz-adv-x="1365" />
<glyph unicode="&#x2004;" horiz-adv-x="455" />
<glyph unicode="&#x2005;" horiz-adv-x="341" />
<glyph unicode="&#x2006;" horiz-adv-x="227" />
<glyph unicode="&#x2007;" horiz-adv-x="227" />
<glyph unicode="&#x2008;" horiz-adv-x="170" />
<glyph unicode="&#x2009;" horiz-adv-x="273" />
<glyph unicode="&#x200a;" horiz-adv-x="75" />
<glyph unicode="&#x2010;" d="M0 256v128h512v-128h-512z" />
<glyph unicode="&#x2011;" d="M0 256v128h512v-128h-512z" />
<glyph unicode="&#x2012;" d="M0 256v128h512v-128h-512z" />
<glyph unicode="&#x2013;" horiz-adv-x="1152" d="M0 256v128h1024v-128h-1024z" />
<glyph unicode="&#x2014;" horiz-adv-x="2176" d="M0 256v128h2048v-128h-2048z" />
<glyph unicode="&#x2018;" horiz-adv-x="384" d="M0 384v256h128v-128h128v-128h-256z" />
<glyph unicode="&#x2019;" horiz-adv-x="384" d="M0 512v128h256v-256h-128v128h-128z" />
<glyph unicode="&#x201c;" d="M0 384v256h128v-128h128v128h128v-128h128v-128h-512z" />
<glyph unicode="&#x201d;" d="M0 512v128h512v-256h-128v128h-128v-128h-128v128h-128z" />
<glyph unicode="&#x202f;" horiz-adv-x="273" />
<glyph unicode="&#x205f;" horiz-adv-x="341" />
<glyph unicode="&#xe000;" d="M0 0v640h640v-640h-640z" />
</font>
</defs>
</svg>
